<?xml version="1.0" encoding="UTF-8"?>
<svg version="1.1" xmlns="http://www.w3.org/2000/svg" width="1080" height="1080">
<path d="M0 0 C6.15234375 -0.09765625 6.15234375 -0.09765625 8 0 C9 1 9 1 9.12467116 2.79252279 C9.12451518 3.58350054 9.1243592 4.37447828 9.1241985 5.18942505 C9.12644579 6.10045885 9.12869308 7.01149265 9.13100848 7.95013353 C9.12838146 8.96466153 9.12575445 9.97918952 9.12304783 11.02446079 C9.12420167 12.09604355 9.12535552 13.16762631 9.12654433 14.27168128 C9.12921957 17.91091804 9.12468141 21.55011174 9.12025452 25.18934631 C9.12069003 27.80533291 9.12156458 30.42131946 9.12284368 33.03730577 C9.12492325 38.7499466 9.12326375 44.46257705 9.11920547 50.17521667 C9.11318759 58.66979463 9.11286807 67.164366 9.11374746 75.6589457 C9.11506356 89.9459475 9.11171164 104.23294469 9.10573006 118.51994514 C9.09981981 132.67272019 9.09596548 146.82549331 9.09487724 160.97826958 C9.0948085 161.8571447 9.09473976 162.73601981 9.09466894 163.64152751 C9.09433062 168.10460703 9.09402923 172.56768654 9.09374207 177.03076606 C9.09163978 208.67033298 9.0848972 240.30989739 9.07543945 271.94946289 C9.06626005 302.69327786 9.05917397 333.43709214 9.05493164 364.1809082 C9.05480011 365.12800813 9.05466859 366.07510805 9.05453308 367.05090797 C9.05321459 376.56178389 9.05193877 386.07265983 9.05069422 395.58353576 C9.04815778 414.95953474 9.04533652 434.33553368 9.04234314 453.71153259 C9.04220585 454.60247528 9.04206856 455.49341797 9.04192711 456.41135892 C9.03272124 515.94090699 9.01687543 575.47045367 9 635 C5.15146073 636.32823928 1.75316187 637.27253626 -2.3125 637.5625 C-5.46173433 637.56002019 -5.46173433 637.56002019 -8 639 C-9.68608966 639.07205511 -11.37500659 639.08386068 -13.0625 639.0625 C-13.98160156 639.05347656 -14.90070313 639.04445313 -15.84765625 639.03515625 C-16.91306641 639.01775391 -16.91306641 639.01775391 -18 639 C-18 639.66 -18 640.32 -18 641 C-21.63 641 -25.26 641 -29 641 C-29 641.66 -29 642.32 -29 643 C-51.80127986 646.58165209 -51.80127986 646.58165209 -61 646 C-61 646.66 -61 647.32 -61 648 C-61.71027344 648.06058594 -62.42054688 648.12117187 -63.15234375 648.18359375 C-64.07144531 648.26738281 -64.99054687 648.35117187 -65.9375 648.4375 C-66.85402344 648.51871094 -67.77054688 648.59992187 -68.71484375 648.68359375 C-70.96159732 648.76044976 -70.96159732 648.76044976 -72 650 C-74.57897694 650.32237212 -77.15931821 650.51267304 -79.75 650.71875 C-81.96665352 650.76200665 -81.96665352 650.76200665 -83 652 C-89.62188208 653.0835807 -96.30870551 653.12813117 -103 653 C-103 653.66 -103 654.32 -103 655 C-106.63 655 -110.26 655 -114 655 C-114 655.66 -114 656.32 -114 657 C-117.63 657 -121.26 657 -125 657 C-125 657.66 -125 658.32 -125 659 C-125.69867187 659.06058594 -126.39734375 659.12117187 -127.1171875 659.18359375 C-128.02726563 659.26738281 -128.93734375 659.35117187 -129.875 659.4375 C-130.77992188 659.51871094 -131.68484375 659.59992187 -132.6171875 659.68359375 C-135.01110861 659.86989285 -135.01110861 659.86989285 -137 661 C-143.29761382 662.09936793 -149.62744285 662.11973489 -156 662 C-156 662.66 -156 663.32 -156 664 C-156.71027344 664.06058594 -157.42054688 664.12117187 -158.15234375 664.18359375 C-159.07144531 664.26738281 -159.99054687 664.35117187 -160.9375 664.4375 C-161.85402344 664.51871094 -162.77054688 664.59992187 -163.71484375 664.68359375 C-165.96159732 664.76044976 -165.96159732 664.76044976 -167 666 C-169.57897694 666.32237212 -172.15931821 666.51267304 -174.75 666.71875 C-176.96665352 666.76200665 -176.96665352 666.76200665 -178 668 C-179.47302586 668.21425831 -180.95462147 668.37045055 -182.4375 668.5 C-183.77941406 668.62375 -183.77941406 668.62375 -185.1484375 668.75 C-187.04947917 668.91666667 -188.95052083 669.08333333 -190.8515625 669.25 C-192.19347656 669.37375 -192.19347656 669.37375 -193.5625 669.5 C-194.38878906 669.5721875 -195.21507812 669.644375 -196.06640625 669.71875 C-198.00297358 669.80365276 -198.00297358 669.80365276 -199 671 C-200.47396739 671.20768229 -201.9549126 671.36716017 -203.4375 671.5 C-206.84497505 671.79146944 -206.84497505 671.79146944 -210 673 C-212.33077343 673.30791869 -214.66241896 673.50895274 -217.00390625 673.71875 C-218.99583131 673.79532012 -218.99583131 673.79532012 -220 675 C-223.28458098 675.67855499 -226.61766818 676.09081757 -229.9375 676.5625 C-230.85080078 676.70107422 -231.76410156 676.83964844 -232.70507812 676.98242188 C-238.84514699 677.86454076 -244.80014353 678.17420528 -251 678 C-251 678.66 -251 679.32 -251 680 C-251.69867187 680.06058594 -252.39734375 680.12117187 -253.1171875 680.18359375 C-254.02726563 680.26738281 -254.93734375 680.35117187 -255.875 680.4375 C-256.77992188 680.51871094 -257.68484375 680.59992187 -258.6171875 680.68359375 C-261.01110861 680.86989285 -261.01110861 680.86989285 -263 682 C-265.29809536 682.30869938 -267.59720129 682.50883648 -269.90625 682.71875 C-272.05443933 682.892155 -272.05443933 682.892155 -274 684 C-275.43366805 684.20621621 -276.8741599 684.36637858 -278.31640625 684.5 C-279.58581055 684.62375 -279.58581055 684.62375 -280.88085938 684.75 C-282.67249242 684.9170277 -284.4641593 685.08369281 -286.25585938 685.25 C-287.52333008 685.37375 -287.52333008 685.37375 -288.81640625 685.5 C-289.59443604 685.5721875 -290.37246582 685.644375 -291.17407227 685.71875 C-293.01522954 685.81815694 -293.01522954 685.81815694 -294 687 C-295.68608966 687.07205511 -297.37500659 687.08386068 -299.0625 687.0625 C-299.98160156 687.05347656 -300.90070312 687.04445313 -301.84765625 687.03515625 C-302.91306641 687.01775391 -302.91306641 687.01775391 -304 687 C-304 687.66 -304 688.32 -304 689 C-304.78246094 689.06058594 -305.56492187 689.12117187 -306.37109375 689.18359375 C-307.38300781 689.26738281 -308.39492188 689.35117187 -309.4375 689.4375 C-310.44683594 689.51871094 -311.45617187 689.59992187 -312.49609375 689.68359375 C-314.93640779 689.73211468 -314.93640779 689.73211468 -316 691 C-322.69577806 691.97196778 -329.24211575 692.11368403 -336 692 C-336 692.66 -336 693.32 -336 694 C-339.63 694 -343.26 694 -347 694 C-347 694.66 -347 695.32 -347 696 C-347.71027344 696.06058594 -348.42054688 696.12117187 -349.15234375 696.18359375 C-350.07144531 696.26738281 -350.99054687 696.35117187 -351.9375 696.4375 C-352.85402344 696.51871094 -353.77054688 696.59992187 -354.71484375 696.68359375 C-356.96159732 696.76044976 -356.96159732 696.76044976 -358 698 C-359.64107242 698.20839015 -361.28856293 698.36751725 -362.9375 698.5 C-366.60557465 698.75214943 -366.60557465 698.75214943 -370 700 C-376.29761382 701.09936793 -382.62744285 701.11973489 -389 701 C-389 701.66 -389 702.32 -389 703 C-392.63 703 -396.26 703 -400 703 C-400 703.66 -400 704.32 -400 705 C-400.71027344 705.06058594 -401.42054688 705.12117187 -402.15234375 705.18359375 C-403.07144531 705.26738281 -403.99054687 705.35117187 -404.9375 705.4375 C-405.85402344 705.51871094 -406.77054688 705.59992187 -407.71484375 705.68359375 C-409.96159732 705.76044976 -409.96159732 705.76044976 -411 707 C-417.94617691 708.15769615 -424.98053779 708.12010487 -432 708 C-432 708.66 -432 709.32 -432 710 C-432.71027344 710.06058594 -433.42054688 710.12117187 -434.15234375 710.18359375 C-435.07144531 710.26738281 -435.99054687 710.35117187 -436.9375 710.4375 C-437.85402344 710.51871094 -438.77054688 710.59992187 -439.71484375 710.68359375 C-441.96159732 710.76044976 -441.96159732 710.76044976 -443 712 C-444.68608966 712.07205511 -446.37500659 712.08386068 -448.0625 712.0625 C-448.98160156 712.05347656 -449.90070312 712.04445313 -450.84765625 712.03515625 C-451.91306641 712.01775391 -451.91306641 712.01775391 -453 712 C-453 712.66 -453 713.32 -453 714 C-453.78246094 714.06058594 -454.56492187 714.12117187 -455.37109375 714.18359375 C-456.38300781 714.26738281 -457.39492188 714.35117187 -458.4375 714.4375 C-459.44683594 714.51871094 -460.45617187 714.59992187 -461.49609375 714.68359375 C-463.93640779 714.73211468 -463.93640779 714.73211468 -465 716 C-466.39986475 716.21376514 -467.80861683 716.37022604 -469.21875 716.5 C-470.49298828 716.62375 -470.49298828 716.62375 -471.79296875 716.75 C-473.59765625 716.91666667 -475.40234375 717.08333333 -477.20703125 717.25 C-478.48126953 717.37375 -478.48126953 717.37375 -479.78125 717.5 C-480.56564453 717.5721875 -481.35003906 717.644375 -482.15820312 717.71875 C-484.01342729 717.81600626 -484.01342729 717.81600626 -485 719 C-487.57897694 719.32237212 -490.15931821 719.51267304 -492.75 719.71875 C-494.96665352 719.76200665 -494.96665352 719.76200665 -496 721 C-497.47396739 721.20768229 -498.9549126 721.36716017 -500.4375 721.5 C-503.84497505 721.79146944 -503.84497505 721.79146944 -507 723 C-508.43366805 723.20621621 -509.8741599 723.36637858 -511.31640625 723.5 C-512.58581055 723.62375 -512.58581055 723.62375 -513.88085938 723.75 C-515.67249242 723.9170277 -517.4641593 724.08369281 -519.25585938 724.25 C-520.52333008 724.37375 -520.52333008 724.37375 -521.81640625 724.5 C-522.59443604 724.5721875 -523.37246582 724.644375 -524.17407227 724.71875 C-526.01522954 724.81815694 -526.01522954 724.81815694 -527 726 C-529.57897694 726.32237212 -532.15931821 726.51267304 -534.75 726.71875 C-536.96665352 726.76200665 -536.96665352 726.76200665 -538 728 C-539.47396739 728.20768229 -540.9549126 728.36716017 -542.4375 728.5 C-545.84497505 728.79146944 -545.84497505 728.79146944 -549 730 C-550.39990461 730.27423772 -551.80788875 730.50801376 -553.21875 730.71875 C-554.06953125 730.84636719 -554.9203125 730.97398437 -555.796875 731.10546875 C-556.68890625 731.23566406 -557.5809375 731.36585938 -558.5 731.5 C-559.36109375 731.63019531 -560.2221875 731.76039063 -561.109375 731.89453125 C-566.42568877 732.68242805 -571.72735899 733.29519427 -577.08398438 733.73632812 C-579.00556893 733.80420055 -579.00556893 733.80420055 -580 735 C-582.57897694 735.32237212 -585.15931821 735.51267304 -587.75 735.71875 C-589.96665352 735.76200665 -589.96665352 735.76200665 -591 737 C-592.47444444 737.18765656 -593.95548555 737.32421028 -595.4375 737.4375 C-599.02336033 737.7533002 -602.4287503 738.26403452 -605.9375 739.0625 C-611.30820653 740.21519536 -616.52986066 740.18719108 -622 740 C-622 740.66 -622 741.32 -622 742 C-622.71027344 742.06058594 -623.42054688 742.12117187 -624.15234375 742.18359375 C-625.07144531 742.26738281 -625.99054688 742.35117187 -626.9375 742.4375 C-627.85402344 742.51871094 -628.77054688 742.59992187 -629.71484375 742.68359375 C-631.96159732 742.76044976 -631.96159732 742.76044976 -633 744 C-635.57897694 744.32237212 -638.15931821 744.51267304 -640.75 744.71875 C-642.96665352 744.76200665 -642.96665352 744.76200665 -644 746 C-648.3117632 746.79986332 -652.66054096 747.36974524 -657 748 C-658.19625 748.20625 -659.3925 748.4125 -660.625 748.625 C-665.41908716 749.15767635 -670.18181634 749.07841529 -675 749 C-675 749.66 -675 750.32 -675 751 C-678.63 751 -682.26 751 -686 751 C-686 751.66 -686 752.32 -686 753 C-686.69867187 753.06058594 -687.39734375 753.12117187 -688.1171875 753.18359375 C-689.02726562 753.26738281 -689.93734375 753.35117187 -690.875 753.4375 C-691.77992188 753.51871094 -692.68484375 753.59992187 -693.6171875 753.68359375 C-696.01110861 753.86989285 -696.01110861 753.86989285 -698 755 C-704.69951016 755.95707288 -711.23953843 756.11372739 -718 756 C-718 756.66 -718 757.32 -718 758 C-721.3 758 -724.6 758 -728 758 C-728 758.66 -728 759.32 -728 760 C-731.63 760 -735.26 760 -739 760 C-739 760.66 -739 761.32 -739 762 C-740.26457031 762.13277344 -741.52914063 762.26554688 -742.83203125 762.40234375 C-744.49220625 762.58055463 -746.15236148 762.75894963 -747.8125 762.9375 C-749.06256836 763.06801758 -749.06256836 763.06801758 -750.33789062 763.20117188 C-751.54155273 763.33168945 -751.54155273 763.33168945 -752.76953125 763.46484375 C-753.50792236 763.543396 -754.24631348 763.62194824 -755.00708008 763.70288086 C-757.20269378 763.97151996 -757.20269378 763.97151996 -760 765 C-761.89470816 765.0685495 -763.7916834 765.08480372 -765.6875 765.0625 C-766.68136719 765.05347656 -767.67523437 765.04445313 -768.69921875 765.03515625 C-769.45847656 765.02355469 -770.21773437 765.01195312 -771 765 C-771 765.66 -771 766.32 -771 767 C-771.71027344 767.06058594 -772.42054688 767.12117187 -773.15234375 767.18359375 C-774.07144531 767.26738281 -774.99054688 767.35117187 -775.9375 767.4375 C-776.85402344 767.51871094 -777.77054688 767.59992187 -778.71484375 767.68359375 C-780.96159732 767.76044976 -780.96159732 767.76044976 -782 769 C-784.57897694 769.32237212 -787.15931821 769.51267304 -789.75 769.71875 C-791.96665352 769.76200665 -791.96665352 769.76200665 -793 771 C-794.39986475 771.21376514 -795.80861683 771.37022604 -797.21875 771.5 C-798.49298828 771.62375 -798.49298828 771.62375 -799.79296875 771.75 C-801.59765625 771.91666667 -803.40234375 772.08333333 -805.20703125 772.25 C-806.48126953 772.37375 -806.48126953 772.37375 -807.78125 772.5 C-808.56564453 772.5721875 -809.35003906 772.644375 -810.15820312 772.71875 C-812.01342729 772.81600626 -812.01342729 772.81600626 -813 774 C-815.57897694 774.32237212 -818.15931821 774.51267304 -820.75 774.71875 C-822.96665352 774.76200665 -822.96665352 774.76200665 -824 776 C-826.57897694 776.32237212 -829.15931821 776.51267304 -831.75 776.71875 C-833.96665352 776.76200665 -833.96665352 776.76200665 -835 778 C-836.47302586 778.21425831 -837.95462147 778.37045055 -839.4375 778.5 C-840.77941406 778.62375 -840.77941406 778.62375 -842.1484375 778.75 C-844.04947917 778.91666667 -845.95052083 779.08333333 -847.8515625 779.25 C-849.19347656 779.37375 -849.19347656 779.37375 -850.5625 779.5 C-851.38878906 779.5721875 -852.21507812 779.644375 -853.06640625 779.71875 C-855.00297358 779.80365276 -855.00297358 779.80365276 -856 781 C-857.47396739 781.20768229 -858.9549126 781.36716017 -860.4375 781.5 C-863.84497505 781.79146944 -863.84497505 781.79146944 -867 783 C-869.33077343 783.30791869 -871.66241896 783.50895274 -874.00390625 783.71875 C-875.99583131 783.79532012 -875.99583131 783.79532012 -877 785 C-878.47444444 785.18765656 -879.95548555 785.32421028 -881.4375 785.4375 C-885.02336033 785.7533002 -888.4287503 786.26403452 -891.9375 787.0625 C-897.30820653 788.21519536 -902.52986066 788.18719108 -908 788 C-908 788.66 -908 789.32 -908 790 C-908.71027344 790.06058594 -909.42054688 790.12117187 -910.15234375 790.18359375 C-911.07144531 790.26738281 -911.99054688 790.35117187 -912.9375 790.4375 C-913.85402344 790.51871094 -914.77054688 790.59992187 -915.71484375 790.68359375 C-917.96159732 790.76044976 -917.96159732 790.76044976 -919 792 C-921.57897694 792.32237212 -924.15931821 792.51267304 -926.75 792.71875 C-928.96665352 792.76200665 -928.96665352 792.76200665 -930 794 C-936.62188208 795.0835807 -943.30870551 795.12813117 -950 795 C-950 795.66 -950 796.32 -950 797 C-953.63 797 -957.26 797 -961 797 C-961 797.66 -961 798.32 -961 799 C-961.71027344 799.06058594 -962.42054688 799.12117187 -963.15234375 799.18359375 C-964.07144531 799.26738281 -964.99054688 799.35117187 -965.9375 799.4375 C-966.85402344 799.51871094 -967.77054688 799.59992187 -968.71484375 799.68359375 C-970.96159732 799.76044976 -970.96159732 799.76044976 -972 801 C-974.27436595 801.35918984 -976.55791795 801.66049882 -978.84375 801.9375 C-979.87018616 802.06499634 -979.87018616 802.06499634 -980.9173584 802.19506836 C-983.85575891 802.5599185 -986.79535525 802.91470981 -989.73486328 803.27050781 C-991.87576354 803.53107323 -994.01600015 803.79665393 -996.15625 804.0625 C-997.44337891 804.21847656 -998.73050781 804.37445312 -1000.05664062 804.53515625 C-1002.88163924 804.6855912 -1002.88163924 804.6855912 -1004 806 C-1005.68608966 806.07205511 -1007.37500659 806.08386068 -1009.0625 806.0625 C-1009.98160156 806.05347656 -1010.90070312 806.04445313 -1011.84765625 806.03515625 C-1012.55792969 806.02355469 -1013.26820313 806.01195312 -1014 806 C-1014 806.66 -1014 807.32 -1014 808 C-1014.78246094 808.06058594 -1015.56492187 808.12117187 -1016.37109375 808.18359375 C-1017.38300781 808.26738281 -1018.39492188 808.35117187 -1019.4375 808.4375 C-1020.44683594 808.51871094 -1021.45617187 808.59992187 -1022.49609375 808.68359375 C-1024.93640779 808.73211468 -1024.93640779 808.73211468 -1026 810 C-1032.69577806 810.97196778 -1039.24211575 811.11368403 -1046 811 C-1046 811.66 -1046 812.32 -1046 813 C-1049.63 813 -1053.26 813 -1057 813 C-1057 813.66 -1057 814.32 -1057 815 C-1059.64 815 -1062.28 815 -1065 815 C-1065 605.45 -1065 395.9 -1065 180 C-1060.5545917 178.22183668 -1058.71884603 177.76581094 -1054.1875 177.875 C-1053.21167969 177.89304687 -1052.23585938 177.91109375 -1051.23046875 177.9296875 C-1050.49441406 177.95289063 -1049.75835938 177.97609375 -1049 178 C-1049 177.34 -1049 176.68 -1049 176 C-1048.28972656 175.93941406 -1047.57945313 175.87882813 -1046.84765625 175.81640625 C-1045.92855469 175.73261719 -1045.00945312 175.64882813 -1044.0625 175.5625 C-1043.14597656 175.48128906 -1042.22945312 175.40007812 -1041.28515625 175.31640625 C-1039.03840268 175.23955024 -1039.03840268 175.23955024 -1038 174 C-1036.35892758 173.79160985 -1034.71143707 173.63248275 -1033.0625 173.5 C-1029.39442535 173.24785057 -1029.39442535 173.24785057 -1026 172 C-1019.70238618 170.90063207 -1013.37255715 170.88026511 -1007 171 C-1007 170.34 -1007 169.68 -1007 169 C-1003.37 169 -999.74 169 -996 169 C-996 168.34 -996 167.68 -996 167 C-992.37 167 -988.74 167 -985 167 C-985 166.34 -985 165.68 -985 165 C-977.97195301 164.14626761 -971.07721931 163.87890689 -964 164 C-964 163.34 -964 162.68 -964 162 C-960.37 162 -956.74 162 -953 162 C-953 161.34 -953 160.68 -953 160 C-949.7 160 -946.4 160 -943 160 C-943 159.34 -943 158.68 -943 158 C-942.22914063 157.93941406 -941.45828125 157.87882813 -940.6640625 157.81640625 C-939.66117188 157.73261719 -938.65828125 157.64882813 -937.625 157.5625 C-936.62726563 157.48128906 -935.62953125 157.40007812 -934.6015625 157.31640625 C-932.02072387 157.15034374 -932.02072387 157.15034374 -930 156 C-928.63939241 155.79465218 -927.27181118 155.63408839 -925.90234375 155.5 C-925.10119141 155.4175 -924.30003906 155.335 -923.47460938 155.25 C-921.7793344 155.08295212 -920.08402164 154.91628718 -918.38867188 154.75 C-914.36475562 154.70408322 -914.36475562 154.70408322 -911 153 C-908.42102306 152.67762788 -905.84068179 152.48732696 -903.25 152.28125 C-901.03334648 152.23799335 -901.03334648 152.23799335 -900 151 C-898.52603261 150.79231771 -897.0450874 150.63283983 -895.5625 150.5 C-892.15502495 150.20853056 -892.15502495 150.20853056 -889 149 C-887.56633195 148.79378379 -886.1258401 148.63362142 -884.68359375 148.5 C-883.83732422 148.4175 -882.99105469 148.335 -882.11914062 148.25 C-880.32750758 148.0829723 -878.5358407 147.91630719 -876.74414062 147.75 C-875.89916016 147.6675 -875.05417969 147.585 -874.18359375 147.5 C-873.40556396 147.4278125 -872.62753418 147.355625 -871.82592773 147.28125 C-869.98477046 147.18184306 -869.98477046 147.18184306 -869 146 C-866.42102306 145.67762788 -863.84068179 145.48732696 -861.25 145.28125 C-859.03334648 145.23799335 -859.03334648 145.23799335 -858 144 C-855.42102306 143.67762788 -852.84068179 143.48732696 -850.25 143.28125 C-848.03334648 143.23799335 -848.03334648 143.23799335 -847 142 C-845.63487179 141.71562155 -844.2582448 141.48587477 -842.87890625 141.28125 C-841.59790039 141.08982422 -841.59790039 141.08982422 -840.29101562 140.89453125 C-839.39060547 140.76433594 -838.49019531 140.63414062 -837.5625 140.5 C-836.69689453 140.36980469 -835.83128906 140.23960937 -834.93945312 140.10546875 C-829.60629189 139.31919479 -824.28674702 138.70645222 -818.91381836 138.26367188 C-816.99417953 138.19550671 -816.99417953 138.19550671 -816 137 C-813.42102306 136.67762788 -810.84068179 136.48732696 -808.25 136.28125 C-806.03334648 136.23799335 -806.03334648 136.23799335 -805 135 C-802.42102306 134.67762788 -799.84068179 134.48732696 -797.25 134.28125 C-795.03334648 134.23799335 -795.03334648 134.23799335 -794 133 C-787.30422194 132.02803222 -780.75788425 131.88631597 -774 132 C-774 131.34 -774 130.68 -774 130 C-770.37 130 -766.74 130 -763 130 C-763 129.34 -763 128.68 -763 128 C-762.28972656 127.93941406 -761.57945312 127.87882812 -760.84765625 127.81640625 C-759.92855469 127.73261719 -759.00945312 127.64882813 -758.0625 127.5625 C-756.68771484 127.44068359 -756.68771484 127.44068359 -755.28515625 127.31640625 C-753.03840268 127.23955024 -753.03840268 127.23955024 -752 126 C-748.71541902 125.32144501 -745.38233182 124.90918243 -742.0625 124.4375 C-741.14919922 124.29892578 -740.23589844 124.16035156 -739.29492188 124.01757812 C-733.15485301 123.13545924 -727.19985647 122.82579472 -721 123 C-721 122.34 -721 121.68 -721 121 C-717.37 121 -713.74 121 -710 121 C-710 120.34 -710 119.68 -710 119 C-709.30132813 118.93941406 -708.60265625 118.87882812 -707.8828125 118.81640625 C-706.97273438 118.73261719 -706.06265625 118.64882812 -705.125 118.5625 C-704.22007812 118.48128906 -703.31515625 118.40007812 -702.3828125 118.31640625 C-699.98889139 118.13010715 -699.98889139 118.13010715 -698 117 C-691.30048984 116.04292712 -684.76046157 115.88627261 -678 116 C-678 115.34 -678 114.68 -678 114 C-677.28972656 113.93941406 -676.57945312 113.87882812 -675.84765625 113.81640625 C-674.92855469 113.73261719 -674.00945312 113.64882812 -673.0625 113.5625 C-671.68771484 113.44068359 -671.68771484 113.44068359 -670.28515625 113.31640625 C-668.03840268 113.23955024 -668.03840268 113.23955024 -667 112 C-665.31391034 111.92794489 -663.62499341 111.91613932 -661.9375 111.9375 C-660.55884766 111.95103516 -660.55884766 111.95103516 -659.15234375 111.96484375 C-658.08693359 111.98224609 -658.08693359 111.98224609 -657 112 C-657 111.34 -657 110.68 -657 110 C-655.90300781 109.86722656 -654.80601562 109.73445313 -653.67578125 109.59765625 C-652.22134199 109.41937015 -650.76691558 109.2409792 -649.3125 109.0625 C-648.59126953 108.97548828 -647.87003906 108.88847656 -647.12695312 108.79882812 C-644.16714479 108.43392025 -641.26300337 108.05569483 -638.34375 107.4375 C-635.58323726 106.92220429 -632.99334367 106.90369465 -630.1875 106.9375 C-628.72376953 106.95103516 -628.72376953 106.95103516 -627.23046875 106.96484375 C-626.49441406 106.97644531 -625.75835938 106.98804688 -625 107 C-625 106.34 -625 105.68 -625 105 C-624.28972656 104.93941406 -623.57945312 104.87882812 -622.84765625 104.81640625 C-621.92855469 104.73261719 -621.00945312 104.64882812 -620.0625 104.5625 C-618.68771484 104.44068359 -618.68771484 104.44068359 -617.28515625 104.31640625 C-615.03840268 104.23955024 -615.03840268 104.23955024 -614 103 C-611.42102306 102.67762788 -608.84068179 102.48732696 -606.25 102.28125 C-604.03334648 102.23799335 -604.03334648 102.23799335 -603 101 C-596.37811792 99.9164193 -589.69129449 99.87186883 -583 100 C-583 99.34 -583 98.68 -583 98 C-582.28972656 97.93941406 -581.57945312 97.87882812 -580.84765625 97.81640625 C-579.92855469 97.73261719 -579.00945312 97.64882812 -578.0625 97.5625 C-576.68771484 97.44068359 -576.68771484 97.44068359 -575.28515625 97.31640625 C-573.03840268 97.23955024 -573.03840268 97.23955024 -572 96 C-569.42102306 95.67762788 -566.84068179 95.48732696 -564.25 95.28125 C-562.03334648 95.23799335 -562.03334648 95.23799335 -561 94 C-554.37811792 92.9164193 -547.69129449 92.87186883 -541 93 C-541 92.34 -541 91.68 -541 91 C-540.30132813 90.93941406 -539.60265625 90.87882812 -538.8828125 90.81640625 C-537.97273437 90.73261719 -537.06265625 90.64882812 -536.125 90.5625 C-535.22007812 90.48128906 -534.31515625 90.40007812 -533.3828125 90.31640625 C-530.98889139 90.13010715 -530.98889139 90.13010715 -529 89 C-526.66922657 88.69208131 -524.33758104 88.49104726 -521.99609375 88.28125 C-520.00416869 88.20467988 -520.00416869 88.20467988 -519 87 C-517.52555556 86.81234344 -516.04451445 86.67578972 -514.5625 86.5625 C-510.97663967 86.2466998 -507.5712497 85.73596548 -504.0625 84.9375 C-498.69179347 83.78480464 -493.47013934 83.81280892 -488 84 C-488 83.34 -488 82.68 -488 82 C-487.28972656 81.93941406 -486.57945312 81.87882812 -485.84765625 81.81640625 C-484.92855469 81.73261719 -484.00945313 81.64882812 -483.0625 81.5625 C-482.14597656 81.48128906 -481.22945312 81.40007812 -480.28515625 81.31640625 C-478.03840268 81.23955024 -478.03840268 81.23955024 -477 80 C-475.35892758 79.79160985 -473.71143707 79.63248275 -472.0625 79.5 C-468.39442535 79.24785057 -468.39442535 79.24785057 -465 78 C-463.56633195 77.79378379 -462.1258401 77.63362142 -460.68359375 77.5 C-459.41418945 77.37625 -459.41418945 77.37625 -458.11914062 77.25 C-456.32750758 77.0829723 -454.5358407 76.91630719 -452.74414062 76.75 C-451.89916016 76.6675 -451.05417969 76.585 -450.18359375 76.5 C-449.01654907 76.39171875 -449.01654907 76.39171875 -447.82592773 76.28125 C-445.98477046 76.18184306 -445.98477046 76.18184306 -445 75 C-443.31391034 74.92794489 -441.62499341 74.91613932 -439.9375 74.9375 C-439.01839844 74.94652344 -438.09929688 74.95554687 -437.15234375 74.96484375 C-436.44207031 74.97644531 -435.73179687 74.98804688 -435 75 C-435 74.34 -435 73.68 -435 73 C-431.37 73 -427.74 73 -424 73 C-424 72.34 -424 71.68 -424 71 C-401.19872014 67.41834791 -401.19872014 67.41834791 -392 68 C-392 67.34 -392 66.68 -392 66 C-388.7 66 -385.4 66 -382 66 C-382 65.34 -382 64.68 -382 64 C-381.21753906 63.93941406 -380.43507813 63.87882812 -379.62890625 63.81640625 C-378.61699219 63.73261719 -377.60507812 63.64882812 -376.5625 63.5625 C-375.55316406 63.48128906 -374.54382813 63.40007812 -373.50390625 63.31640625 C-371.06359221 63.26788532 -371.06359221 63.26788532 -370 62 C-363.37811792 60.9164193 -356.69129449 60.87186883 -350 61 C-350 60.34 -350 59.68 -350 59 C-346.37 59 -342.74 59 -339 59 C-339 58.34 -339 57.68 -339 57 C-338.28972656 56.93941406 -337.57945312 56.87882812 -336.84765625 56.81640625 C-335.92855469 56.73261719 -335.00945313 56.64882812 -334.0625 56.5625 C-333.14597656 56.48128906 -332.22945312 56.40007812 -331.28515625 56.31640625 C-329.03840268 56.23955024 -329.03840268 56.23955024 -328 55 C-324.71541902 54.32144501 -321.38233182 53.90918243 -318.0625 53.4375 C-317.14919922 53.29892578 -316.23589844 53.16035156 -315.29492188 53.01757812 C-309.15485301 52.13545924 -303.19985647 51.82579472 -297 52 C-297 51.34 -297 50.68 -297 50 C-293.37 50 -289.74 50 -286 50 C-286 49.34 -286 48.68 -286 48 C-282.37 48 -278.74 48 -275 48 C-275 47.34 -275 46.68 -275 46 C-267.97195301 45.14626761 -261.07721931 44.87890689 -254 45 C-254 44.34 -254 43.68 -254 43 C-253.28972656 42.93941406 -252.57945312 42.87882812 -251.84765625 42.81640625 C-250.92855469 42.73261719 -250.00945313 42.64882812 -249.0625 42.5625 C-248.14597656 42.48128906 -247.22945312 42.40007812 -246.28515625 42.31640625 C-244.03840268 42.23955024 -244.03840268 42.23955024 -243 41 C-241.52603261 40.79231771 -240.0450874 40.63283983 -238.5625 40.5 C-235.15502495 40.20853056 -235.15502495 40.20853056 -232 39 C-229.76473183 38.64957179 -227.52222372 38.34487851 -225.27734375 38.0625 C-223.92122243 37.88803272 -222.56510268 37.71355319 -221.20898438 37.5390625 C-219.06712162 37.2680342 -216.9250838 36.99844112 -214.78295898 36.72949219 C-212.71812423 36.46899004 -210.65398399 36.2034402 -208.58984375 35.9375 C-207.35097412 35.78152344 -206.11210449 35.62554687 -204.83569336 35.46484375 C-202.1060522 35.30052121 -202.1060522 35.30052121 -201 34 C-199.52603261 33.79231771 -198.0450874 33.63283983 -196.5625 33.5 C-193.15502495 33.20853056 -193.15502495 33.20853056 -190 32 C-187.70190464 31.69130062 -185.40279871 31.49116352 -183.09375 31.28125 C-180.94556067 31.107845 -180.94556067 31.107845 -179 30 C-177.56633195 29.79378379 -176.1258401 29.63362142 -174.68359375 29.5 C-173.83732422 29.4175 -172.99105469 29.335 -172.11914062 29.25 C-170.32750758 29.0829723 -168.5358407 28.91630719 -166.74414062 28.75 C-165.47666992 28.62625 -165.47666992 28.62625 -164.18359375 28.5 C-163.40556396 28.4278125 -162.62753418 28.355625 -161.82592773 28.28125 C-159.98477046 28.18184306 -159.98477046 28.18184306 -159 27 C-157.31391034 26.92794489 -155.62499341 26.91613932 -153.9375 26.9375 C-153.01839844 26.94652344 -152.09929688 26.95554688 -151.15234375 26.96484375 C-150.44207031 26.97644531 -149.73179687 26.98804688 -149 27 C-149 26.34 -149 25.68 -149 25 C-148.21753906 24.93941406 -147.43507813 24.87882812 -146.62890625 24.81640625 C-145.61699219 24.73261719 -144.60507812 24.64882812 -143.5625 24.5625 C-142.55316406 24.48128906 -141.54382813 24.40007812 -140.50390625 24.31640625 C-138.06359221 24.26788532 -138.06359221 24.26788532 -137 23 C-130.30422194 22.02803222 -123.75788425 21.88631597 -117 22 C-117 21.34 -117 20.68 -117 20 C-116.28972656 19.93941406 -115.57945312 19.87882812 -114.84765625 19.81640625 C-113.92855469 19.73261719 -113.00945313 19.64882812 -112.0625 19.5625 C-110.68771484 19.44068359 -110.68771484 19.44068359 -109.28515625 19.31640625 C-107.03840268 19.23955024 -107.03840268 19.23955024 -106 18 C-103.42102306 17.67762788 -100.84068179 17.48732696 -98.25 17.28125 C-96.03334648 17.23799335 -96.03334648 17.23799335 -95 16 C-93.52555556 15.81234344 -92.04451445 15.67578972 -90.5625 15.5625 C-86.97663967 15.2466998 -83.5712497 14.73596548 -80.0625 13.9375 C-74.69179347 12.78480464 -69.47013934 12.81280892 -64 13 C-64 12.34 -64 11.68 -64 11 C-60.37 11 -56.74 11 -53 11 C-53 10.34 -53 9.68 -53 9 C-52.28972656 8.93941406 -51.57945312 8.87882813 -50.84765625 8.81640625 C-49.92855469 8.73261719 -49.00945313 8.64882812 -48.0625 8.5625 C-46.68771484 8.44068359 -46.68771484 8.44068359 -45.28515625 8.31640625 C-43.03840268 8.23955024 -43.03840268 8.23955024 -42 7 C-40.52697414 6.78574169 -39.04537853 6.62954945 -37.5625 6.5 C-36.66789062 6.4175 -35.77328125 6.335 -34.8515625 6.25 C-32.95052083 6.08333333 -31.04947917 5.91666667 -29.1484375 5.75 C-28.25382812 5.6675 -27.35921875 5.585 -26.4375 5.5 C-25.61121094 5.4278125 -24.78492188 5.355625 -23.93359375 5.28125 C-21.99702642 5.19634724 -21.99702642 5.19634724 -21 4 C-19.31391034 3.92794489 -17.62499341 3.91613932 -15.9375 3.9375 C-15.01839844 3.94652344 -14.09929687 3.95554688 -13.15234375 3.96484375 C-12.44207031 3.97644531 -11.73179688 3.98804688 -11 4 C-11 3.34 -11 2.68 -11 2 C-7.37 2 -3.74 2 0 2 C0 1.34 0 0.68 0 0 Z " fill="#000000" transform="translate(1068,132)"/>
</svg>
